<?xml version="1.0" encoding="utf-8"?>
<!-- Generator: Adobe Illustrator 25.4.1, SVG Export Plug-In . SVG Version: 6.00 Build 0)  -->
<svg version="1.1" xmlns="http://www.w3.org/2000/svg" xmlns:xlink="http://www.w3.org/1999/xlink" x="0px" y="0px"
	 viewBox="0 0 1499.8 840.3" style="enable-background:new 0 0 1499.8 840.3;" xml:space="preserve">
<style type="text/css">
	.st0{fill:none;}
	.st1{fill:#4D7ABD;}
	.st2{fill:#6190CC;}
	.st3{fill:#3D66AB;}
</style>
<g id="Слой_2">
</g>
<g id="Слой_1">
	<g id="Слой_2_00000149358571409476544860000002145413825873732228_">
		<g id="Слой_12">
			<path class="st0" d="M1297.5,748.3c-0.2,0.6-0.3,1.2-0.5,1.9C1297.1,749.6,1297.3,748.9,1297.5,748.3z"/>
			<path class="st0" d="M1296.1,753.1l-0.4,1.5L1296.1,753.1z"/>
			<path class="st0" d="M1294.7,757.7l-0.4,1.2L1294.7,757.7z"/>
			<path class="st0" d="M1293.2,762.3l-0.3,0.8L1293.2,762.3z"/>
			<polygon class="st0" points="1291.6,766.9 1291.6,766.9 1291.6,766.9 			"/>
			<path class="st0" d="M1301.1,731.9c-0.3,1.5-0.6,3.1-0.9,4.7C1300.5,735,1300.8,733.4,1301.1,731.9z"/>
			<path class="st0" d="M1298.7,743.5c-0.2,0.8-0.4,1.5-0.6,2.2C1298.3,745,1298.5,744.2,1298.7,743.5z"/>
			<path class="st0" d="M1299.8,738.3c-0.2,0.9-0.4,1.9-0.6,2.8C1299.4,740.2,1299.6,739.3,1299.8,738.3z"/>
			<path class="st1" d="M186.6,450.8c38.1-78.9,124.5-116,193-82.9c21.3,10.4,39.2,26.8,51.4,47.1c38.2-21.1,82.7-24.9,121.5-6.2
				c14.4,7,27.2,16.7,37.8,28.7c43.8-47.7,109.3-65.6,163.5-39.4c49,23.7,75.5,77,72.5,134.3c22-2,44.1,2,64,11.6
				c22.6,10.9,40.3,28.1,52.7,49.1c24.1-3.3,48.6-0.1,71.2,10.8c40.4,19.6,65.5,59.3,71.4,104.8c42-31.7,95.3-40.7,140.8-18.7
				c31.9,15.4,54.3,43.4,65.2,76.9l0,0c0.5-1.2,0.9-2.5,1.3-3.8l0.3-0.8c0.4-1.1,0.8-2.3,1.1-3.4l0.4-1.2c0.3-1,0.7-2.1,1-3.1
				l0.4-1.5c0.3-1,0.6-1.9,0.8-2.9c0.2-0.6,0.3-1.2,0.5-1.9c0.2-0.9,0.5-1.7,0.7-2.6s0.4-1.5,0.6-2.2s0.4-1.5,0.5-2.3
				c0.2-0.9,0.4-1.9,0.6-2.8c0.1-0.6,0.3-1.2,0.4-1.8c0.3-1.5,0.6-3.1,0.9-4.7c30.5-25.4,49.7-62,49.7-102.7
				c0-67.1-52.2-123.2-121.7-136.2c2.2-9.2,3.3-18.6,3.3-28.1c0-74.9-68.4-135.5-152.7-135.5c-24.4-0.1-48.6,5.2-70.8,15.4
				C985.1,319,954,303.4,920,303.4c-26.3,0-50.8,9.3-71.6,25.4c-20.8-55.4-82.6-83.3-137.9-62.5c-12.6,4.7-24.2,11.8-34.2,20.9
				c-9.3-72.4-67.8-128.1-138.6-128.1c-65,0-119.7,47-135.4,110.7C352.8,228.1,278.8,234.4,237,284c-2,2.3-3.8,4.7-5.6,7.2
				c-29-35.5-76.8-58.7-130.8-58.7c-37.9,0-72.6,11.4-100.1,30.4C0.2,266.9,0,271,0,275.2c0,31.3,10.7,61.7,30.3,86.1
				C-2,401.5-9.1,456.4,11.9,503.5C55.2,445.9,127.6,422.2,186.6,450.8z"/>
			<path class="st2" d="M1499.8,502.8c0-70.3-52.9-129.2-122.8-136.8c-31.4-42.9-84.8-63.8-137-53.7
				c-29.2-70.2-109.8-103.3-180-74.1c-18.8,7.8-35.7,19.8-49.3,34.9c-24.7-41.9-69.8-67.6-118.5-67.6c-4.5,0-9,0.2-13.4,0.7
				c0.2-3.3,0.4-6.7,0.4-10c0-76-61.6-137.6-137.5-137.6c-42.4,0-82.5,19.5-108.5,53c-32.1-41.2-84.8-60.6-136-50.2
				c-52.2-38.4-124-35.2-172.6,7.7C286.9,3.1,202.9-19.8,137,17.9c-48.7,27.8-75.6,82.4-68,138C30.1,178.3,4.6,218.2,0.6,262.9
				c27.4-19,62.2-30.4,100.1-30.4c54.1,0,101.9,23.2,130.8,58.7c37.8-52.6,111.1-64.7,163.7-26.9c2.5,1.8,4.9,3.6,7.2,5.6
				c15.7-63.7,70.3-110.7,135.4-110.7c70.8,0,129.3,55.8,138.6,128.1c43.8-39.7,111.5-36.4,151.2,7.5c9,10,16.1,21.6,20.9,34.2
				c20.8-16.1,45.3-25.4,71.6-25.4c34,0,65,15.6,88.9,41.3c22.2-10.2,46.3-15.5,70.8-15.4c84.3,0,152.7,60.7,152.7,135.5
				c0,9.5-1.1,18.9-3.3,28.1c69.5,13.1,121.7,69.1,121.7,136.2c0,40.6-19.1,77.2-49.7,102.7c-0.3,1.5-0.6,3.1-0.9,4.7
				c-0.1,0.6-0.2,1.2-0.4,1.8c-0.2,0.9-0.4,1.9-0.6,2.8c-0.2,0.8-0.4,1.5-0.5,2.3s-0.4,1.5-0.6,2.2s-0.4,1.7-0.7,2.6
				c-0.2,0.6-0.3,1.2-0.5,1.9c-0.3,1-0.5,1.9-0.8,2.9l-0.4,1.5c-0.3,1-0.6,2.1-1,3.1l-0.4,1.2c-0.4,1.1-0.7,2.3-1.1,3.4l-0.3,0.8
				c-0.4,1.3-0.9,2.5-1.3,3.8c8.3-3.1,17-5.4,25.7-6.9c-0.9,7.5-2.2,14.9-3.7,22.2c71.1,26.8,150.5-9,177.3-80.1
				c15.5-41.1,10.5-87.1-13.6-123.9C1492,555.7,1499.8,529.6,1499.8,502.8z"/>
			<path class="st2" d="M1299.2,741.2c-0.2,0.8-0.4,1.5-0.5,2.3C1298.9,742.7,1299.1,741.9,1299.2,741.2z"/>
			<path class="st2" d="M1295.7,754.6c-0.3,1-0.6,2.1-1,3.1C1295.1,756.7,1295.4,755.6,1295.7,754.6z"/>
			<path class="st2" d="M1300.2,736.5c-0.1,0.6-0.2,1.2-0.4,1.8C1300,737.7,1300.1,737.1,1300.2,736.5z"/>
			<path class="st2" d="M1298.1,745.7c-0.2,0.9-0.4,1.7-0.7,2.6C1297.7,747.4,1297.9,746.6,1298.1,745.7z"/>
			<path class="st2" d="M1294.3,758.9c-0.4,1.1-0.7,2.3-1.1,3.4C1293.6,761.2,1294,760.1,1294.3,758.9z"/>
			<path class="st2" d="M1297,750.2c-0.3,1-0.5,1.9-0.8,2.9C1296.4,752.1,1296.7,751.1,1297,750.2z"/>
			<path class="st2" d="M1293,763.1c-0.4,1.3-0.9,2.5-1.3,3.8C1292.1,765.6,1292.5,764.3,1293,763.1z"/>
			<path class="st3" d="M137.6,585c0,76,61.6,137.6,137.6,137.6c23.4,0,46.4-6,66.9-17.3c36.9,45.2,98.3,62.3,153.2,42.6
				c24.9,71.8,103.4,109.8,175.2,84.8c34.4-12,62.7-37.1,78.6-69.8c41.6,21.3,91.1,20,131.5-3.3c60.2,34.8,136.9,19.2,178.7-36.4
				c38.5,65.5,122.8,87.4,188.3,48.9c8-4.7,15.5-10.2,22.4-16.5c6.3,5.6,13,10.7,20.2,15.1c0.5-1.3,1-2.5,1.4-3.8l0,0
				c-10.9-33.5-33.3-61.5-65.2-76.9c-45.5-22-98.9-13-140.8,18.7c-5.9-45.5-31-85.2-71.4-104.8c-22.6-10.9-47.1-14.2-71.2-10.8
				c-12.3-21-30.1-38.2-52.7-49.1c-19.9-9.6-42-13.6-64-11.6c2.9-57.3-23.5-110.6-72.5-134.3c-54.2-26.2-119.6-8.4-163.5,39.4
				c-10.6-12-23.5-21.7-37.8-28.7c-38.8-18.7-83.3-14.9-121.6,6.2c-12.3-20.3-30.1-36.7-51.5-47.1c-68.4-33.1-154.8,4-193,82.9
				c-59-28.5-131.3-4.9-174.6,52.8C34.1,553.1,83.3,585,137.6,585z"/>
		</g>
	</g>
	<path class="st2" d="M1297,774.6"/>
	<path class="st2" d="M1313.6,782.1c0,0-9.1-3.3-14.3-5.8s-9-5.7-9-5.7l1.4-3.8l15.5-9.1l14.3-0.3l-0.1,9.1l-2.9,12.4L1313.6,782.1z
		"/>
</g>
</svg>
