<svg xmlns="http://www.w3.org/2000/svg" viewBox="0 0 1499.75 840.33"><defs><style>.cls-1{fill:none;}.cls-2{fill:#4d7abd;}.cls-3{fill:#6190cc;}.cls-4{fill:#3d66ab;}</style></defs><g id="Слой_2" data-name="Слой 2"><g id="Слой_12" data-name="Слой 12"><path class="cls-1" d="M1297.46,748.31c-.16.63-.33,1.25-.5,1.87C1297.13,749.56,1297.3,748.94,1297.46,748.31Z"/><path class="cls-1" d="M1296.14,753.06l-.45,1.54Z"/><path class="cls-1" d="M1294.73,757.73l-.39,1.19Z"/><path class="cls-1" d="M1293.22,762.33l-.27.76Z"/><polygon class="cls-1" points="1291.61 766.87 1291.61 766.87 1291.61 766.87 1291.61 766.87"/><path class="cls-1" d="M1301.11,731.88c-.28,1.55-.57,3.11-.89,4.66C1300.54,735,1300.83,733.43,1301.11,731.88Z"/><path class="cls-1" d="M1298.69,743.45c-.18.75-.36,1.5-.55,2.25C1298.33,745,1298.51,744.2,1298.69,743.45Z"/><path class="cls-1" d="M1299.84,738.34c-.2.94-.4,1.87-.61,2.81C1299.44,740.21,1299.64,739.28,1299.84,738.34Z"/><path class="cls-2" d="M186.56,450.78c38.15-78.87,124.54-116,193-82.89A123.09,123.09,0,0,1,431,415c38.24-21.11,82.73-24.9,121.47-6.16a121.23,121.23,0,0,1,37.84,28.68c43.84-47.73,109.27-65.58,163.45-39.37,49,23.69,75.46,77,72.54,134.27a122.44,122.44,0,0,1,64,11.6c22.57,10.92,40.33,28.14,52.67,49.12,24.11-3.35,48.63-.12,71.2,10.8,40.43,19.56,65.52,59.27,71.41,104.75C1127.53,677,1180.92,668,1226.39,690c31.91,15.44,54.27,43.44,65.17,76.92h0c.46-1.25.91-2.51,1.34-3.77l.27-.76c.38-1.14.76-2.27,1.12-3.41l.39-1.19c.33-1,.65-2.09,1-3.13l.45-1.54c.28-1,.56-1.92.82-2.88.17-.62.34-1.24.5-1.87.23-.87.46-1.74.68-2.61s.37-1.5.55-2.25.37-1.54.54-2.3c.21-.94.41-1.87.61-2.81.13-.6.26-1.2.38-1.8.32-1.55.61-3.11.89-4.66,30.51-25.44,49.65-62,49.65-102.65,0-67.14-52.23-123.17-121.7-136.25a121.14,121.14,0,0,0,3.31-28.11c0-74.85-68.36-135.52-152.69-135.52a167.6,167.6,0,0,0-70.75,15.41C985.08,319,954,303.44,920,303.44c-26.27,0-50.79,9.32-71.59,25.44a107.08,107.08,0,0,0-172.11-41.66c-9.28-72.36-67.79-128.12-138.59-128.12-65,0-119.66,47-135.35,110.7a117.32,117.32,0,0,0-170.89,21.32c-29-35.49-76.77-58.67-130.84-58.67C62.78,232.45,28,243.84.57,262.86.2,266.93,0,271,0,275.21A137,137,0,0,0,30.3,361.3,137.66,137.66,0,0,0,11.94,503.54C55.22,445.91,127.57,422.25,186.56,450.78Z"/><path class="cls-3" d="M1499.75,502.81A137.61,137.61,0,0,0,1377,366,137.53,137.53,0,0,0,1240,312.3a137.62,137.62,0,0,0-229.28-39.18,137.52,137.52,0,0,0-118.45-67.58c-4.52,0-9,.23-13.39.65.24-3.31.4-6.65.4-10a137.57,137.57,0,0,0-246.07-84.61,137.78,137.78,0,0,0-136-50.23A137.52,137.52,0,0,0,324.63,69,137.53,137.53,0,0,0,69,155.94,137.58,137.58,0,0,0,.57,262.86c27.41-19,62.21-30.41,100.1-30.41,54.07,0,101.88,23.18,130.84,58.67A117.32,117.32,0,0,1,402.4,269.8c15.69-63.69,70.34-110.7,135.35-110.7,70.8,0,129.31,55.76,138.59,128.12a107.08,107.08,0,0,1,172.11,41.66c20.8-16.12,45.32-25.44,71.59-25.44,34,0,65,15.57,88.89,41.32a167.6,167.6,0,0,1,70.75-15.41c84.33,0,152.69,60.67,152.69,135.52a121.14,121.14,0,0,1-3.31,28.11c69.47,13.08,121.7,69.11,121.7,136.25,0,40.64-19.14,77.21-49.65,102.65-.28,1.55-.57,3.11-.89,4.66-.12.6-.25,1.2-.38,1.8-.2.94-.4,1.87-.61,2.81-.17.76-.36,1.53-.54,2.3s-.36,1.5-.55,2.25-.45,1.74-.68,2.61c-.16.63-.33,1.25-.5,1.87-.26,1-.54,1.92-.82,2.88l-.45,1.54c-.31,1-.63,2.09-1,3.13l-.39,1.19c-.36,1.14-.74,2.27-1.12,3.41l-.27.76c-.43,1.26-.88,2.52-1.34,3.77h0a142.08,142.08,0,0,1,25.73-6.89q-1.42,11.21-3.74,22.18A137.6,137.6,0,0,0,1477.31,578.1,136.94,136.94,0,0,0,1499.75,502.81Z"/><path class="cls-3" d="M1299.23,741.15c-.17.76-.36,1.53-.54,2.3C1298.87,742.68,1299.06,741.91,1299.23,741.15Z"/><path class="cls-3" d="M1295.69,754.6c-.31,1-.63,2.09-1,3.13C1295.06,756.69,1295.38,755.64,1295.69,754.6Z"/><path class="cls-3" d="M1300.22,736.54c-.12.6-.25,1.2-.38,1.8C1300,737.74,1300.1,737.14,1300.22,736.54Z"/><path class="cls-3" d="M1298.14,745.7c-.22.87-.45,1.74-.68,2.61C1297.69,747.44,1297.92,746.57,1298.14,745.7Z"/><path class="cls-3" d="M1294.34,758.92c-.36,1.14-.74,2.27-1.12,3.41C1293.6,761.19,1294,760.06,1294.34,758.92Z"/><path class="cls-3" d="M1297,750.18c-.26,1-.54,1.92-.82,2.88C1296.42,752.1,1296.7,751.14,1297,750.18Z"/><path class="cls-3" d="M1293,763.09c-.43,1.26-.88,2.52-1.34,3.77C1292.07,765.61,1292.52,764.35,1293,763.09Z"/><path class="cls-4" d="M137.6,585A137.6,137.6,0,0,0,342.07,705.26a137.63,137.63,0,0,0,153.21,42.59,137.62,137.62,0,0,0,253.77,15,137.44,137.44,0,0,0,131.49-3.33,137.54,137.54,0,0,0,178.71-36.36A137.57,137.57,0,0,0,1270,755.56a138.81,138.81,0,0,0,20.2,15.12c.5-1.27,1-2.54,1.43-3.81h0c-10.9-33.48-33.26-61.48-65.17-76.92-45.47-22-98.86-13-140.78,18.73-5.89-45.48-31-85.19-71.41-104.75-22.57-10.92-47.09-14.15-71.2-10.8-12.34-21-30.1-38.2-52.67-49.12a122.44,122.44,0,0,0-64-11.6c2.92-57.3-23.55-110.58-72.54-134.27-54.18-26.21-119.61-8.36-163.45,39.37a121.23,121.23,0,0,0-37.84-28.68C513.73,390.1,469.24,393.89,431,415a123.09,123.09,0,0,0-51.48-47.11c-68.42-33.1-154.81,4-193,82.89-59-28.53-131.34-4.87-174.62,52.76A137.66,137.66,0,0,0,137.6,585Z"/></g></g></svg>