<svg xmlns="http://www.w3.org/2000/svg" viewBox="0 0 333.24 155.25"><defs><style>.cls-1{fill:#fff;}</style></defs><g id="Слой_2" data-name="Слой 2"><g id="Слой_16" data-name="Слой 16"><path class="cls-1" d="M166.66,0a77.63,77.63,0,1,0,77.63,77.63A77.62,77.62,0,0,0,166.66,0Zm21.53,121.42-21.53-37.3-21.53,37.3a48.8,48.8,0,1,1,43.06,0Z"/><path class="cls-1" d="M64.47,77.63a109.34,109.34,0,0,1,8.36-42L0,77.63l72.83,42.05A109.38,109.38,0,0,1,64.47,77.63Z"/><path class="cls-1" d="M268.77,75.12a109.17,109.17,0,0,1-8.37,42.05l72.84-42L260.4,33.07A109.17,109.17,0,0,1,268.77,75.12Z"/></g></g></svg>