<svg xmlns="http://www.w3.org/2000/svg" viewBox="0 0 997.08 213.76"><defs><style>.cls-1,.cls-2{fill:#2b4d94;}.cls-2{stroke:#2b4d94;stroke-miterlimit:10;stroke-width:7px;}.cls-3{fill:#fff;}</style></defs><g id="Слой_2" data-name="Слой 2"><g id="Слой_5" data-name="Слой 5"><circle class="cls-1" cx="739.34" cy="53.09" r="24.66"/><circle class="cls-1" cx="739.34" cy="160.08" r="24.66"/><path class="cls-2" d="M679.92,109.33q0,21.78-7.54,39.71a89.63,89.63,0,0,1-21,30.67,94.66,94.66,0,0,1-31.84,19.78,116.5,116.5,0,0,1-79.77,0A94.66,94.66,0,0,1,508,179.71,89.63,89.63,0,0,1,487,149a101.57,101.57,0,0,1-7.54-39.71A101.58,101.58,0,0,1,487,69.61a89.82,89.82,0,0,1,21-30.67,94.64,94.64,0,0,1,31.84-19.77,116.5,116.5,0,0,1,79.77,0,94.64,94.64,0,0,1,31.84,19.77,89.82,89.82,0,0,1,21,30.67Q679.93,87.54,679.92,109.33Zm-175.63,0q0,19,6.2,33.2a68.41,68.41,0,0,0,16.43,23.52,66.78,66.78,0,0,0,24,14,91.29,91.29,0,0,0,57.65,0,66.91,66.91,0,0,0,24-14,68.52,68.52,0,0,0,16.42-23.52q6.2-14.17,6.2-33.2t-6.2-33.21A68.71,68.71,0,0,0,632.5,52.6a67.2,67.2,0,0,0-24-14,91.29,91.29,0,0,0-57.65,0,67.07,67.07,0,0,0-24,14,68.6,68.6,0,0,0-16.43,23.52Q504.3,90.31,504.29,109.33Z"/><rect class="cls-3" x="465.82" width="125.66" height="210.26"/><path class="cls-2" d="M181.14,103v86.81A151.92,151.92,0,0,1,162,199.37a147.52,147.52,0,0,1-19.1,6.37,131.15,131.15,0,0,1-20.11,3.52q-10.39,1-22.46,1a115.63,115.63,0,0,1-36.19-5.7A84.9,84.9,0,0,1,11.54,156.3q-8-18.44-8-43.57,0-22.12,8-39.89a94.13,94.13,0,0,1,21.79-30.5,95.82,95.82,0,0,1,32.34-19.6,113.77,113.77,0,0,1,39.72-6.88,151.67,151.67,0,0,1,37.71,4.43,95.28,95.28,0,0,1,32,15L164.38,54.41a85,85,0,0,0-29.49-13.24,138,138,0,0,0-30.84-3.52q-18.1,0-32.18,5.52A67.43,67.43,0,0,0,48.08,58.55,64.67,64.67,0,0,0,33.33,82.3a89.29,89.29,0,0,0-5,30.6q0,18.06,5.53,32.1a65.22,65.22,0,0,0,39.38,38.46,87.25,87.25,0,0,0,30.17,5,140.49,140.49,0,0,0,28.83-2.68,106.17,106.17,0,0,0,25.47-9.05v-54h-48.6V103Z"/><path class="cls-2" d="M246.16,19.22V185.8H344v21.11H221.36V19.22Z"/><path class="cls-2" d="M569.6,113.06a101.58,101.58,0,0,1-7.54,39.72,89.77,89.77,0,0,1-20.95,30.67,94.74,94.74,0,0,1-31.84,19.77,116.5,116.5,0,0,1-79.77,0,94.58,94.58,0,0,1-31.85-19.77,89.61,89.61,0,0,1-20.94-30.67q-7.54-17.92-7.54-39.72t7.54-39.71a89.7,89.7,0,0,1,20.94-30.67A94.77,94.77,0,0,1,429.5,22.9a116.5,116.5,0,0,1,79.77,0,94.92,94.92,0,0,1,31.84,19.78,89.87,89.87,0,0,1,20.95,30.67A101.57,101.57,0,0,1,569.6,113.06Zm-175.63,0q0,19,6.2,33.21a68.44,68.44,0,0,0,16.42,23.52,67.12,67.12,0,0,0,24,14,91.29,91.29,0,0,0,57.65,0,67.16,67.16,0,0,0,24-14,68.58,68.58,0,0,0,16.42-23.52q6.21-14.19,6.2-33.21t-6.2-33.2a68.58,68.58,0,0,0-16.42-23.52,67.16,67.16,0,0,0-24-14,91.29,91.29,0,0,0-57.65,0,67.12,67.12,0,0,0-24,14,68.44,68.44,0,0,0-16.42,23.52Q394,94,394,113.06Z"/><path class="cls-2" d="M833,19.22l65,91.16,65.36-91.16h30.16V206.91H970.12V50.05h-1.68l-66.69,91.84h-8l-66-91.84H826V206.91H802.54V19.22Z"/></g></g></svg>