<svg width="588" height="1564" viewBox="0 0 588 1564" fill="none" xmlns="http://www.w3.org/2000/svg">
<path d="M574.808 1454.19C539.081 1531.75 485.847 1550.78 379.404 1563.58C316.607 1571.14 109.187 1475.89 45.9243 1289.18C-19.7662 1095.34 1.54217 972.851 10.9581 718.682C26.9455 286.802 26.9455 286.802 97.9815 121.476C127.406 52.8145 224.507 -4.44416 299.957 0.828045C364.912 5.36459 463.337 102.447 465.201 484.375C467.481 955.195 415.915 942.248 485.627 1118.78C554.652 1293.65 615.095 1366.82 574.808 1454.19Z" fill="#3560AB"/>
<path d="M493.133 1403.77C466.381 1474.27 426.535 1491.59 346.843 1503.21C299.813 1510.08 144.549 1423.49 97.1752 1253.77C47.987 1077.56 63.9254 966.131 70.9873 735.16C82.9533 342.564 82.9534 342.564 136.138 192.27C158.207 129.911 230.861 77.8015 287.332 82.6078C335.956 86.7275 409.665 174.957 411.063 522.163C412.779 950.069 374.159 938.397 426.339 1098.87C478.053 1257.84 523.318 1324.35 493.133 1403.77Z" fill="#6190CC"/>
<path d="M427.247 1339.26C407.483 1402.33 378.034 1417.73 319.136 1428.22C284.39 1434.35 169.56 1356.89 134.619 1205.07C98.2792 1047.42 110.098 947.741 115.272 741.119C124.124 389.941 124.124 389.941 163.406 255.586C179.712 199.799 233.412 153.182 275.146 157.498C311.093 161.177 365.553 240.112 366.583 550.707C367.858 933.493 339.316 923.023 377.887 1066.57C416.09 1208.73 449.511 1268.22 427.247 1339.26Z" fill="#A5C6EA"/>
<path d="M358.269 1272.26C346.23 1326.21 328.305 1339.45 292.407 1348.28C271.246 1353.53 201.338 1287.27 180.005 1157.4C157.936 1022.53 165.047 937.27 168.21 760.517C173.605 460.075 173.605 460.074 197.635 345.067C207.59 297.323 240.301 257.475 265.729 261.128C287.625 264.292 320.802 331.825 321.415 597.52C322.199 924.985 304.814 916.034 328.305 1038.91C351.477 1160.64 371.853 1211.52 358.269 1272.26Z" fill="#DFF0FC"/>
<path d="M304.25 1216.01C297.899 1261.15 288.459 1272.26 269.578 1279.77C258.421 1284.16 221.64 1228.69 210.41 1119.96C198.762 1007.16 202.539 935.675 204.206 787.686C207.001 536.116 207.001 536.116 219.654 439.819C224.877 399.872 242.09 366.498 255.478 369.563C267.003 372.212 284.462 428.735 284.903 651.172C285.32 925.327 276.174 917.848 288.532 1020.64C300.67 1122.51 311.385 1165.13 304.25 1216.01Z" fill="white"/>
</svg>
