<svg width="826" height="1024" viewBox="0 0 826 1024" fill="none" xmlns="http://www.w3.org/2000/svg">
<path d="M242.379 922.749C110.703 833.415 60.4854 705.19 41.3103 654.16C27.211 616.642 -55.7665 384.42 65.6592 179.147C88.2426 140.966 171.294 0.529563 297.599 0.35791C376.531 0.35791 434.374 54.9436 446.733 66.567C523.433 139.127 527.43 207.077 591.11 324.243C667.32 464.508 689.192 462.497 761.552 613.405C786.44 665.22 866.573 832.14 800.221 933.759C716.557 1061.89 425.645 1047.12 242.379 922.749Z" fill="#3560AB"/>
<path d="M330.261 895.309C228.917 832.533 179.092 729.002 159.818 687.731C145.645 657.373 60.927 469.168 120.193 283.856C131.227 249.403 171.686 122.673 258.783 110.29C313.145 102.565 359.489 143.198 369.395 151.977C430.868 205.925 467.306 262.056 517.965 360.634C580.199 481.723 583.411 463.16 651.234 583.783C674.529 625.176 749.586 758.501 715.92 850.802C673.499 967.011 471.327 982.68 330.261 895.309Z" fill="#6190CC"/>
<path d="M355.886 842.636C277.666 794.205 236.128 711.689 220.018 678.78C208.15 654.602 136.991 504.479 173.306 353.571C180.049 325.494 204.889 222.256 269.231 210.363C309.42 203.007 345.686 234.714 353.459 241.531C401.543 283.684 429.056 329.417 471.035 407.912C522.528 504.332 526.206 488.098 581.892 583.93C601.018 616.838 662.614 722.846 641.452 798.128C614.774 893.028 464.88 910.095 355.886 842.636Z" fill="#A5C6EA"/>
<path d="M370.45 770.836C319.128 737.584 289.238 679.81 277.591 656.784C269.033 639.84 217.393 534.665 233.184 427.603C236.126 407.691 246.916 334.42 286.737 325.248C311.625 319.486 335.778 341.506 341.05 346.215C373.196 375.396 403.553 401.413 433.517 456.318C470.298 523.778 460.906 518.236 500.311 585.254C513.846 608.255 557.419 682.385 547.635 735.818C535.302 803.18 441.927 817.133 370.45 770.836Z" fill="#DFF0FC"/>
<path d="M390.51 733.71C357.628 710.488 335.731 669.732 327.173 653.474C320.871 641.532 282.668 567.304 284.409 491.262C284.728 477.113 285.93 425.053 308.93 418.285C323.299 414.043 339.286 429.467 342.695 432.777C363.88 453.228 377.783 466.004 399.509 504.724C426.212 552.321 426.212 553.915 454.435 601.169C464.243 617.378 495.311 669.659 493.3 707.619C490.799 755.485 436.29 766.03 390.51 733.71Z" fill="white"/>
</svg>
