<svg xmlns="http://www.w3.org/2000/svg" viewBox="0 0 203.25 197.41"><defs><style>.cls-1{fill:#3560ab;}.cls-2{fill:#6190cc;}.cls-3{fill:#a5c6ea;}.cls-4{fill:#dff0fc;}.cls-5{fill:#fff;}</style></defs><g id="Слой_2" data-name="Слой 2"><g id="Слой_1-2" data-name="Слой 1"><path class="cls-1" d="M1.28,125.81c-4.27-37.38,2.83-68,11.06-83.7C40.63-11.71,91.24.81,101.59,2.32c13.1,1.91,28.12,5.47,58.1,25.67,33.78,22.76,40.44,37.72,42.14,44.61,4.48,18.14-2.54,25.24-8.85,32.37-13.72,15.5-21,16.33-41,22-27.24,7.74-45.76,29.48-56.64,41.15-22.36,24-26.65,30-45.57,29.24-4-.16-16.68-1.21-30.33-14.11C.29,165.11,2.09,132.9,1.28,125.81Z"/><path class="cls-2" d="M14.85,114.44C13.35,87.45,20,60.8,27.5,49.32c25.9-39.46,67.25-26.95,75.6-26,10.57,1.16,22.37,6.64,46,17.59,35.24,16.35,36.74,24.88,37.76,29.84,2.68,13.06-7.1,25.38-10.84,29.22-12.31,12.63-22.13,9.77-38.66,14.22-22.59,6.08-38.6,20.65-48.09,29.29-19.48,17.74-24,31.37-38.85,29.11-3.15-.48-14.37-2.45-23.76-16.84C16.26,139.83,15.14,119.56,14.85,114.44Z"/><path class="cls-3" d="M27.52,107.59c.39-18.51,5.93-40.32,12.65-48.45C63.25,31.21,97,41.84,103.63,42.21c8.4.47,17.54,3.87,35.8,10.67C166.72,63,169.3,68.7,169.83,72.08c1.38,8.89-9.07,17.82-12.3,20.58-10.61,9.06-18.31,7.4-31.82,11C107.24,108.5,93.55,119,85.44,125.24,68.78,138,64.36,147.55,52.59,146.45c-2.51-.23-11.38-1.24-18.06-10.84C27.16,125,27.45,111.11,27.52,107.59Z"/><path class="cls-4" d="M41.35,96C42.77,83.64,47.82,69,53.59,63.67,73.44,45.33,100,52.92,105.18,53.24c6.59.41,13.57,2.77,27.53,7.5,20.86,7.06,22.55,10.85,22.76,13.11.55,5.94-8.21,11.77-10.92,13.57-8.89,5.92-14.86,4.73-25.7,7-14.83,3-26.24,9.89-33,14C72,116.68,67.92,123,58.72,122.11a18.55,18.55,0,0,1-13.56-7.42C40,107.55,41.08,98.3,41.35,96Z"/><path class="cls-5" d="M53.82,93.37c1-7.53,4.57-17.2,8.35-20.77,13-12.29,29.91-8.79,33.26-8.91,4.24-.16,8.72.84,17.68,2.84,13.37,3,14.42,5.17,14.54,6.52.29,3.55-5.42,7.6-7.19,8.85-5.79,4.12-9.63,3.77-16.64,5.77-9.6,2.75-17,7.58-21.43,10.44-9,5.88-11.71,9.92-17.64,10-1.26,0-5.72,0-8.66-3.65C52.83,100.44,53.62,94.79,53.82,93.37Z"/></g></g></svg>