<svg width="621" height="919" viewBox="0 0 621 919" fill="none" xmlns="http://www.w3.org/2000/svg">
<path d="M38.6989 791.247C9.49489 765.377 -1.12251 717.682 0.226121 671.311C1.94256 612.851 46.2267 570.403 72.3411 492.89C108.558 385.361 74.033 399.707 98.8232 246.813C106.179 201.594 134.108 29.3771 226.894 3.31033C319.68 -22.7564 426.491 110.643 465.724 159.466C502.284 204.978 626.334 338.647 620.718 526.607C619.027 583.4 610.42 824.941 435.073 899.34C262.4 972.857 62.8025 812.606 38.6989 791.247Z" fill="#3560AB"/>
<path d="M106.009 745.048C83.5729 723.224 75.4321 683.057 76.5845 643.896C77.9086 594.582 111.919 558.756 131.952 493.38C159.758 402.649 133.276 414.714 152.304 285.827C157.944 247.696 179.276 102.428 250.631 80.4319C321.986 58.4357 403.909 170.967 434.02 212.139C462.121 250.54 557.359 363.292 553.067 521.826C551.645 569.717 545.098 773.469 410.382 836.221C277.825 898.237 124.522 763.048 106.009 745.048Z" fill="#6190CC"/>
<path d="M167.064 713.366C150.365 695.244 144.309 661.87 144.995 629.354C145.976 588.403 171.281 558.658 186.214 504.292C206.91 428.986 187.171 438.942 201.343 331.904C205.536 300.246 221.499 179.598 274.537 161.329C327.575 143.061 388.607 236.538 411.018 270.721C431.91 302.6 502.799 396.249 499.611 527.907C498.63 567.706 493.702 736.907 393.511 789.114C294.987 840.61 180.82 728.324 167.064 713.366Z" fill="#A5C6EA"/>
<path d="M225.67 669.055C214.219 655.127 210.075 629.477 210.614 604.465C211.277 572.954 228.613 550.1 238.813 508.339C252.986 450.418 239.5 458.093 249.185 375.773C252.054 351.399 262.99 258.633 299.305 244.581C335.62 230.53 377.428 302.404 392.778 328.716C407.073 353.238 455.624 425.234 453.441 526.51C452.779 557.088 449.396 687.226 380.787 727.368C313.208 766.898 235.086 680.556 225.67 669.055Z" fill="#DFF0FC"/>
<path d="M265.759 632.469C258.109 622.292 255.338 603.557 255.706 585.289C256.147 562.287 267.721 545.588 274.538 515.082C284.002 472.782 274.979 478.3 281.452 418.27C283.389 400.467 290.672 332.713 314.923 322.463C339.174 312.213 367.103 364.69 377.328 383.768C386.891 401.669 419.307 454.268 417.86 528.226C417.419 550.566 415.163 645.612 369.334 674.916C324.216 703.925 272.037 640.88 265.759 632.469Z" fill="white"/>
<path d="M298.127 590.683C293.738 584.136 292.119 572.071 292.34 560.325C292.585 545.612 299.255 534.773 303.178 515.156C308.622 487.961 303.448 491.566 307.175 452.895C308.278 441.443 312.471 397.843 326.424 391.247C340.376 384.65 356.461 418.417 362.346 430.776C367.863 442.301 386.523 476.142 385.665 523.689C385.42 538.084 384.121 599.217 357.736 618.074C331.769 636.637 301.756 596.078 298.127 590.683Z" fill="white"/>
</svg>
