<svg xmlns="http://www.w3.org/2000/svg" viewBox="0 0 271.41 194.6"><defs><style>.cls-1{fill:#6190cc;stroke:#335aa6;stroke-miterlimit:10;stroke-width:20px;}.cls-2{fill:#a5c6ea;}.cls-3{fill:#dff0fc;}.cls-4{fill:#fff;}</style></defs><g id="Слой_2" data-name="Слой 2"><g id="Слой_1-2" data-name="Слой 1"><path class="cls-1" d="M27.13,152.77c-3.16-3.84-20.71-25.18-16.47-51,3.9-23.84,24-37.4,44.68-51.33,33.82-22.81,66.12-28.9,88.83-32.95,46.09-8.21,72.42-12.89,93.05,3.5,22.2,17.64,27.63,51.61,22.28,76.37-12.3,57-85.54,83.26-133.09,86.59C111,185,56.76,188.81,27.13,152.77Z"/><path class="cls-2" d="M60.94,135.74c-2.19-2.67-14.35-17.45-11.41-35.35,2.7-16.52,16.64-25.92,31-35.57C103.92,49,126.3,44.8,142,42c31.94-5.69,50.18-8.94,64.47,2.42C221.89,56.64,225.65,80.18,222,97.33c-8.52,39.47-59.27,57.7-92.22,60C119.07,158.08,81.47,160.71,60.94,135.74Z"/><path class="cls-3" d="M88,123.48c-1.41-1.71-9.2-11.19-7.32-22.67C82.43,90.21,91.38,84.18,100.56,78c15-10.13,29.38-12.84,39.48-14.64,20.48-3.65,32.19-5.73,41.35,1.55,9.87,7.85,12.28,22.94,9.91,33.95-5.47,25.31-38,37-59.16,38.48C125.31,137.81,101.19,139.5,88,123.48Z"/><path class="cls-4" d="M118.48,111.34c-.8-1-5.24-6.37-4.17-12.91,1-6,6.08-9.47,11.31-13,8.56-5.77,16.73-7.32,22.48-8.34,11.66-2.08,18.33-3.27,23.55.88,5.62,4.47,7,13.07,5.64,19.33-3.12,14.42-21.65,21.07-33.69,21.92C139.71,119.5,126,120.46,118.48,111.34Z"/></g></g></svg>