<svg xmlns="http://www.w3.org/2000/svg" viewBox="0 0 365.79 195.86"><defs><style>.cls-1{fill:#3560ab;}.cls-2{fill:#6190cc;}.cls-3{fill:#a5c6ea;}.cls-4{fill:#dff0fc;}.cls-5{fill:#fff;}</style></defs><g id="Слой_2" data-name="Слой 2"><g id="Слой_1-2" data-name="Слой 1"><path class="cls-1" d="M1.81,104c6.76-37.42,34.8-57.29,54.53-70.8,67.8-46.43,143.84-31.8,160.73-28.08,21.37,4.69,45.38,11.42,88.39,37.63,48.45,29.52,60,46.21,60.3,53.31.78,18.69-17.2,31.36-26.33,35.53-30,13.67-49.2,6.87-84.9,8.09-48.82,1.67-87.15,16.92-109.87,26C98,184.21,83.74,201.56,53.91,194.08,47.58,192.5,25.16,186.49,11,164-4.54,139.2.53,111.11,1.81,104Z"/><path class="cls-2" d="M28.94,95.84c7.55-26.68,31.74-40.77,48.73-50.35,58.41-32.93,120.38-22.27,134.12-19.57C229.18,29.34,247,37.23,282.73,53c53.32,23.59,52.67,32.24,52.53,37.3-.35,13.33-21.44,23.24-29.19,26.19-25.46,9.66-41,4.75-70.49,5.52-40.37,1-72.8,11.81-92,18.2-39.47,13.1-52.16,25.44-76.38,20-5.14-1.15-23.33-5.5-33.79-21.58C21.84,120.93,27.51,100.9,28.94,95.84Z"/><path class="cls-3" d="M52.87,91.9c7.57-18,28-27.53,42.39-34,49.35-22.27,99.3-15.18,110.35-13.38,14,2.28,28.13,7.58,56.39,18.17C304.21,78.5,306.46,84.58,306.08,88c-1,9-21.94,15.44-28.42,17.44-21.26,6.55-33.64,3.26-57.75,3.82-33,.76-60,8.07-76,12.4-32.87,8.89-43.87,17.22-63.33,13.6-4.13-.77-18.72-3.67-26.39-14.49C45.75,108.82,51.43,95.31,52.87,91.9Z"/><path class="cls-4" d="M80.52,83.53C87.52,71.81,104.26,66,116,62c40.33-13.62,79.47-7.81,88.13-6.38,10.94,1.82,21.84,5.64,43.62,13.27,32.53,11.4,34,15.47,33.47,17.72-1.29,5.92-18.24,9.72-23.48,10.89-17.2,3.86-26.82,1.41-45.94,1.24-26.14-.23-47.93,4-60.85,6.49-26.52,5.14-35.7,10.41-50.9,7.58-3.22-.6-14.61-2.85-20.08-10.17C73.93,94.55,79.19,85.75,80.52,83.53Z"/><path class="cls-5" d="M102.52,83.69c4.58-7.12,15.57-11,23.28-13.71,26.5-9.19,52.27-6.87,58-6.27,7.21.77,14.39,2.71,28.75,6.6,21.43,5.8,22.39,8.16,22.07,9.5-.83,3.53-12,6.26-15.42,7.1-11.31,2.76-17.64,1.59-30.22,2a220.08,220.08,0,0,0-40,5.56c-17.44,3.79-23.47,7.16-33.47,5.92-2.13-.26-9.63-1.27-13.25-5.43C98.22,90.39,101.65,85,102.52,83.69Z"/></g></g></svg>