<svg xmlns="http://www.w3.org/2000/svg" viewBox="0 0 210.39 274.17"><defs><style>.cls-1{fill:#3560ab;}.cls-2{fill:#6190cc;}.cls-3{fill:#a5c6ea;}.cls-4{fill:#dff0fc;}.cls-5{fill:#fff;}</style></defs><g id="Слой_2" data-name="Слой 2"><g id="Слой_1-2" data-name="Слой 1"><path class="cls-1" d="M141.76,8.4c12.59,4,34.45,10.65,52.68,38.27,12,18.24,16.21,32.69,15.94,58.66-.27,25.33-13,43.58-12.17,70.33.8,26.27,7.42,33.45,4.93,64.3-1.87,23.17-10.12,27.63-17.25,30.81-16.31,7.25-40,1.22-54.84-2.54-31.27-8-53-22.26-63-29-43-28.89-54.57-63.39-57.6-69.91C-2,142.4-2.68,124.81,5,86.55,11.17,56,15.61,35.84,38.09,19.1,46.57,12.79,63.2.84,92.29,0,113.05-.53,130.5,4.84,141.76,8.4Z"/><path class="cls-2" d="M138.63,23.12c10.36,3.26,28.36,8.71,43,32.45,9.68,15.68,12.9,28.18,12.26,50.77-.62,22-11.45,38.12-11.2,61.38.24,22.84,5.61,29,3.06,55.85-1.92,20.19-8.83,24.2-14.79,27.08-13.62,6.57-33.16,1.71-45.37-1.33-25.76-6.42-43.51-18.52-51.66-24.19-35.16-24.44-44.17-54.27-46.58-59.89-9.94-23.25-10.2-38.55-3.21-71.95C29.73,66.6,33.73,49,52.62,34.09,59.73,28.47,73.7,17.8,97.8,16.64,115,15.81,129.36,20.2,138.63,23.12Z"/><path class="cls-3" d="M134.47,38.71c8.28,2.59,22.65,6.91,34.05,26.74,7.53,13.1,9.91,23.61,9,42.72-.85,18.63-9.81,32.39-10,52.05-.17,19.29,4,24.39,1.57,47.15-1.86,17.09-7.47,20.59-12.31,23.12-11.05,5.77-26.67,2-36.44-.41a115.56,115.56,0,0,1-41.12-19.61c-27.87-20.1-34.64-45.16-36.48-49.88-7.62-19.49-7.59-32.41-1.44-60.75,4.91-22.65,8.4-37.58,23.82-50.49,5.81-4.87,17.19-14.1,36.59-15.47C115.6,32.91,127.07,36.39,134.47,38.71Z"/><path class="cls-4" d="M127.3,58.26c6.22,1.93,17,5.16,25.37,20.62,5.53,10.21,7.2,18.46,6.31,33.5-.87,14.67-7.81,25.61-8.17,41.08-.37,15.19,2.76,19.15.6,37.08-1.61,13.47-5.89,16.3-9.57,18.34-8.41,4.68-20.16,1.88-27.5.13a82.74,82.74,0,0,1-30.81-14.93C62.75,178.61,58,159,56.61,155.28c-5.51-15.24-5.32-25.41-.34-47.78,4-17.88,6.8-29.68,18.6-40,4.44-3.9,13.15-11.31,27.8-12.62C113.13,53.93,121.74,56.52,127.3,58.26Z"/><path class="cls-5" d="M121.67,76.42c4.53,1.4,12.39,3.74,18.36,15.35,3.94,7.67,5.08,13.89,4.28,25.28-.77,11.1-5.95,19.44-6.37,31.14-.41,11.49,1.84,14.46.09,28-1.31,10.2-4.46,12.38-7.17,14-6.2,3.62-14.76,1.62-20.11.37a58,58,0,0,1-22.38-11,54.07,54.07,0,0,1-19.31-29.09c-3.89-11.47-3.66-19.16.2-36.13,3.09-13.56,5.26-22.51,14-30.45,3.28-3,9.72-8.67,20.45-9.8C111.35,73.28,117.63,75.16,121.67,76.42Z"/></g></g></svg>