<svg xmlns="http://www.w3.org/2000/svg" viewBox="0 0 287.97 338.55"><defs><style>.cls-1{fill:#3560ab;}.cls-2{fill:#6190cc;}.cls-3{fill:#a5c6ea;}.cls-4{fill:#dff0fc;}.cls-5{fill:#fff;}</style></defs><g id="Слой_2" data-name="Слой 2"><g id="Слой_1-2" data-name="Слой 1"><path class="cls-1" d="M37.08,257.21C26.33,240.3-9,182.83,2.17,108.81,6.44,80.6,14.61,26.61,57.45,7c25.69-11.78,54.62-8.9,74.79,10.54,15.31,14.76,16.81,26.53,34.32,86.93,8.77,30.24,13.36,45.65,23.28,59.65,18.74,26.43,55.75,31.61,81,58.19,10.89,11.47,23.42,40,13.58,71.29-9.3,29.6-54,38.26-74.2,42.19-9.51,1.85-72.35,13-128-27.64C58.93,291.16,46.66,272.26,37.08,257.21Z"/><path class="cls-2" d="M60.75,257.2C51.43,243,20.6,194.81,22.41,128.64c.69-25.22,2-73.48,31.64-93.89,17.77-12.23,45-13.94,61.4,1.78,12.47,11.94,8.79,24.41,26.81,76.51,9,26.08,13.71,39.36,22.17,51,16,22,28.12,32.72,53.86,48.13,10.22,6.12,51.5,33.95,47,62.33-4.25,26.8-40.18,40.32-60.1,43.08-7.12,1-61.16,1.66-103.14-23.15C82.46,282.85,69.05,269.81,60.75,257.2Z"/><path class="cls-3" d="M80,250.42c-7.58-11.63-34.7-50.77-38.28-106.68-1.37-21.3-4-62.08,15.29-80.33,11.55-10.94,30.5-13.32,43.16-.61,9.61,9.64,8,20.29,24.4,63.64,8.23,21.7,12.49,32.74,19.27,42.29,12.82,18,22.1,26.64,41.28,38.75,7.61,4.81,57.43,36.38,56.37,60.48-1,22.77-39.09,30.79-58,30.49-5-.08-40.25-1.73-71.49-21.23C97.44,268.12,86.76,260.77,80,250.42Z"/><path class="cls-4" d="M91.86,238c-6.08-7.12-22.94-33.92-30.15-71-3.27-16.84-7.43-79.9,8.37-88.33,10.91-5.82,20.18-.36,26.37,9.95,4.72,7.87,14.37,36.55,25.47,65.77,5.55,14.64,8.48,20.82,13,28.52,7.54,12.87,12.06,18.83,25,27,5.14,3.24,60.37,36.84,59.65,53.1-.68,15.35-34.68,19.8-47.64,17.82-21.46-3.27-37.41-11.61-58.48-24.75C103.61,250,97.55,244.69,91.86,238Z"/><path class="cls-5" d="M96.51,223.75c-4-5.81-16.16-26.53-21.78-56-2.55-13.39-7.15-63.3,2.22-69.48,6.47-4.27,12.31.31,16.43,8.63,3.14,6.36,10,29.29,17.7,52.7,3.87,11.72,6.9,16.09,9.92,22.31,5,10.38,18.58,33.4,44.08,46.56,8.78,4.52,35.36,19.84,35.45,32.65.09,12.1-31.55,8-39.53,6.06-13.2-3.23-38.47-16.54-51.76-27.55C103,234.46,100.2,229.18,96.51,223.75Z"/></g></g></svg>