<svg width="925" height="923" viewBox="0 0 925 923" fill="none" xmlns="http://www.w3.org/2000/svg">
<path d="M549.972 780.148C441.076 493.414 355.352 445.302 300.451 411.486C165.588 328.332 58.6291 384.659 11.4516 277.744C-21.1608 203.859 31.068 120.141 36.7322 111.485C137.095 -44.2532 419.939 8.17473 448.677 13.8883C648.667 53.4912 763.913 192.677 786.742 221.368C913.685 380.76 977.193 634.856 871.534 798.221C832.056 859.256 751.016 935.543 676.375 921.124C630.203 912.247 587.807 879.78 549.972 780.148Z" fill="#3560AB"/>
<path d="M605.533 684.194C504.607 469.922 385.878 368.009 347.847 346.601C254.423 294.026 135.597 328.725 76.5025 256.116C37.4412 208.102 58.1856 174.188 99.1594 138.116C202.979 46.6987 435.091 92.3092 453.604 94.0993C582.41 106.63 670.145 204.865 687.652 225.218C785.023 338.264 883.081 560.726 836.468 698.27C819.058 749.766 736.424 853.297 690.693 838.044C629.245 817.642 640.622 758.716 605.533 684.194Z" fill="#6190CC"/>
<path d="M620.591 582.697C565.64 423.477 436.687 330.514 409.714 315.409C343.288 278.037 200.26 267.934 144.892 230.857C105.145 204.202 150.311 155.06 181.477 141.843C266.196 105.918 420.822 134.756 434.039 136.031C525.623 144.932 608.134 217.738 620.542 232.206C689.763 312.613 795.005 460.26 796.354 608.274C797.065 684.022 743.954 787.946 711.415 777.082C667.793 762.394 644.032 650.672 620.591 582.697Z" fill="#A5C6EA"/>
<path d="M625.151 479.338C561.054 365.36 500.979 315.213 455.371 286.301C412.803 259.327 314.966 238.067 271.466 226.664C250.183 221.098 194.913 204.448 206.659 184.658C234.367 138.067 387.449 163.741 414.936 168.229C468.465 176.958 517.359 203.785 547.004 226.076C608.894 272.667 699.742 369.455 730.908 480.588C746.871 537.381 767.885 678.455 716.392 702.879C690.4 715.165 652.54 528.014 625.151 479.338Z" fill="#DFF0FC"/>
<path d="M614.704 393.978C558.307 318.745 513.533 289.613 484.745 271.368C457.773 254.203 406.525 241.01 383.181 233.85C371.779 230.368 283.407 208.102 291.891 198.685C313.96 174.163 421.36 202.977 435.361 205.748C462.628 211.142 489.306 227.376 510.296 239.441C553.869 264.429 619.51 325.414 664.481 394.517C698.957 447.509 731.348 599.177 720.118 619.972C703.052 651.262 700.796 508.47 614.704 393.978Z" fill="white"/>
</svg>
