<svg xmlns="http://www.w3.org/2000/svg" viewBox="0 0 682.28 440.39"><defs><style>.cls-1{fill:#2a4d92;}.cls-2{fill:#213973;}</style></defs><g id="Слой_2" data-name="Слой 2"><g id="Слой_12" data-name="Слой 12"><path class="cls-1" d="M682.28,226c0-47.2-32.9-85.72-74.22-87.94a98.9,98.9,0,0,0,1.9-19.26c0-48.63-34.92-88-78-88-22.75,0-43.21,11-57.47,28.54C463.94,24.78,434.94,0,400.8,0c-28.24,0-53,17-66.65,42.32C320.46,17,295.73,0,267.49,0,233.75,0,205,24.19,194.16,58.05c-14.28-18.11-35.07-29.52-58.24-29.52-43.06,0-78,39.42-78,88a97,97,0,0,0,.55,10.15A75.66,75.66,0,0,0,25.58,146.8a115.33,115.33,0,0,1,46.68,20.42c18.7-25.95,55.21-43.58,97.19-43.58,34.55,0,65.39,11.94,85.65,30.64,38.38-26,106-20.89,164.26,15.61,40.42,25.31,67.35,60,76.09,93.15,48.92,7.13,86,41.47,86,82.77a69.25,69.25,0,0,1-6,28.1A251.43,251.43,0,0,1,591.83,401C614.68,385.68,630,357.53,630,325.32a99.31,99.31,0,0,0-1.27-15.74C659.82,298,682.28,265,682.28,226Z"/><path class="cls-2" d="M581.47,345.81c0-41.3-37.1-75.64-86-82.77-8.74-33.11-35.67-67.84-76.09-93.15-58.31-36.5-125.88-41.64-164.26-15.61-20.26-18.7-51.1-30.64-85.65-30.64-42,0-78.49,17.63-97.19,43.58A115.33,115.33,0,0,0,25.58,146.8C9.87,162.91,0,186.15,0,212c0,48.62,34.91,88,78,88,.7,0,1.38,0,2.07-.06,8.06,38.93,39,67.94,75.91,67.94,1.51,0,3-.06,4.49-.16C171.18,401.9,200,426.35,234,426.35c18.85,0,36.15-7.55,49.63-20.13l1.54.17c14.18,16.55,34,26.85,56,26.85,18.24,0,35-7.09,48.29-18.94,14.13,16.11,33.73,26.09,55.39,26.09,27.58,0,51.79-16.17,65.65-40.55a70.47,70.47,0,0,0,81.34,1.2,251.43,251.43,0,0,0-16.36-27.13A69.25,69.25,0,0,0,581.47,345.81Z"/></g></g></svg>