<svg xmlns="http://www.w3.org/2000/svg" viewBox="0 0 1171.91 557.88"><defs><style>.cls-1{fill:#3560ab;}.cls-2{fill:#28569a;}</style></defs><g id="Слой_2" data-name="Слой 2"><g id="Слой_12" data-name="Слой 12"><path class="cls-1" d="M232.52,422a89.26,89.26,0,0,1,25.33-62.4c-.24-2.66-.38-5.34-.38-8.06a89.6,89.6,0,0,1,161.22-53.84,89.62,89.62,0,0,1,157.42-14.64,89.61,89.61,0,0,1,138.63-60.48,90.89,90.89,0,0,1-1.32-15.31,89.6,89.6,0,0,1,161.1-54,89.58,89.58,0,0,1,130.56,3.51,90,90,0,0,1,35.31-41.7,89.56,89.56,0,0,0-95.54-30A89.61,89.61,0,0,0,772.57,55.31,89.57,89.57,0,0,0,642,51.8a89.57,89.57,0,0,0-159.77,69.29,89.63,89.63,0,0,0-138.64,60.48,89.62,89.62,0,0,0-157.42,14.64A89.6,89.6,0,0,0,25,250.05c0,2.72.14,5.4.38,8.06a89.58,89.58,0,0,0,47.41,150.4A89.59,89.59,0,0,0,228,464.22a89.88,89.88,0,0,0,31.77,22.09A89.28,89.28,0,0,1,232.52,422Z"/><path class="cls-2" d="M343.09,478.19a89.59,89.59,0,0,0,178.08,0,89.53,89.53,0,0,0,111.54-10.34l4.5.08a89.57,89.57,0,0,0,140-3.85l6.18-.64a89.6,89.6,0,0,0,158-28l.74-.21a89.58,89.58,0,0,0,84.31-15,89.59,89.59,0,1,0,106.53-143.91A89.57,89.57,0,0,0,1060,134.6c-2.56,0-5.09.13-7.59.34a89.81,89.81,0,0,0-12-19.82,90,90,0,0,0-35.31,41.7,89.58,89.58,0,0,0-130.56-3.51,89.6,89.6,0,0,0-161.1,54,90.89,90.89,0,0,0,1.32,15.31,89.61,89.61,0,0,0-138.63,60.48,89.62,89.62,0,0,0-157.42,14.64,89.6,89.6,0,0,0-161.22,53.84c0,2.72.14,5.4.38,8.06a89.52,89.52,0,0,0,1.89,126.68,89.67,89.67,0,0,0,83.35-8.12Z"/></g></g></svg>