<svg width="722" height="559" viewBox="0 0 722 559" fill="none" xmlns="http://www.w3.org/2000/svg">
<path d="M236.714 544.925C169.553 527.76 67.8413 501.84 22.2576 412.286C-30.5351 308.559 22.9443 180.285 85.6679 108.902C190.052 -9.85787 346.174 -0.7848 386.78 1.59382C426.332 3.87436 553.323 11.2554 642.75 113.781C659.522 132.982 741.911 227.416 717.562 338.794C690.05 464.567 547.536 515.352 492.758 534.7C469.242 543.062 365.202 577.711 236.714 544.925Z" fill="#3560AB"/>
<path d="M257.923 486.072C203.537 472.389 121.172 451.742 84.2688 380.04C41.505 297.082 84.8083 194.507 135.615 137.42C220.137 42.4715 346.491 49.7299 379.447 51.5936C411.471 53.4082 514.31 59.318 586.744 141.295C600.328 156.67 667.024 232.173 647.309 321.236C625.045 421.776 509.627 462.311 465.269 477.882C446.216 484.601 361.964 512.286 257.923 486.072Z" fill="#6190CC"/>
<path d="M280.04 427.098C237.08 416.848 172.027 401.301 142.872 347.696C109.107 285.582 143.313 208.755 183.429 166.013C250.174 94.8995 350.046 100.343 376.013 101.741C401.294 103.114 482.53 107.553 539.712 168.931C550.452 180.432 603.122 236.979 587.552 303.679C569.97 378.986 478.828 409.319 443.788 420.992C390.777 437.888 334.161 439.999 280.04 427.098Z" fill="#A5C6EA"/>
<path d="M309.76 387.078C279.011 379.721 232.422 368.613 211.555 330.211C187.378 285.753 211.874 230.751 240.587 200.245C288.378 149.338 359.88 153.237 378.466 154.242C396.587 155.223 454.725 158.386 495.674 202.354C503.349 210.569 541.062 251.055 530.003 298.799C517.4 352.747 452.151 374.449 427.017 382.786C389.052 394.871 348.507 396.355 309.76 387.078Z" fill="#DFF0FC"/>
<path d="M332.246 351.791C311.575 346.886 280.263 339.383 266.237 313.561C249.98 283.669 266.433 246.714 285.853 226.141C317.975 191.81 366.036 194.532 378.541 195.219C391.047 195.905 429.789 197.989 457.326 227.538C462.475 233.08 487.829 260.3 480.35 292.399C471.866 328.642 427.999 343.233 411.153 348.799C385.613 356.959 358.331 357.993 332.246 351.791Z" fill="white"/>
</svg>
