<svg xmlns="http://www.w3.org/2000/svg" viewBox="0 0 387.6 391.93"><defs><style>.cls-1{fill:#3560ab;}.cls-2{fill:#6190cc;}.cls-3{fill:#a5c6ea;}.cls-4{fill:#dff0fc;}.cls-5{fill:#fff;}</style></defs><g id="Слой_2" data-name="Слой 2"><g id="Слой_1-2" data-name="Слой 1"><path class="cls-1" d="M0,222.85c.29-18.68,3.4-37.33,16.16-57.24,18.38-28.68,33.92-45.11,67.34-71.16,43.75-34.11,56.43-32.22,95.9-59.36,35.45-24.38,60.47-36.17,85-35,22,1,38,16.61,52.43,30.58,7.45,7.24,29.37,29.87,48.05,80.39,14.59,39.45,28.66,77.48,20.1,126.7-2.65,15.24-10.6,57.62-45.44,93.5C296.24,375.86,243.05,388,208.7,391c-35.09,3-102.91,1.39-151.39-40.48-30.52-26.36-43.42-59.76-49-76.5C.28,249.76-.14,233.4,0,222.85Z"/><path class="cls-2" d="M34.1,220.27c.25-15.79,2.88-31.55,13.66-48.38,15.54-24.24,28.67-38.12,56.92-60.15,37-28.82,47.69-27.22,81-50.17C215.69,41,236.84,31,257.55,32c18.62.88,32.17,14.05,44.31,25.85,6.3,6.12,24.83,25.25,40.62,68,12.33,33.33,24.22,65.48,17,107.08-2.24,12.88-9,48.7-38.41,79-36.6,37.71-81.56,47.95-110.59,50.46-29.66,2.57-87,1.17-127.95-34.21-25.8-22.28-36.7-50.51-41.4-64.66C34.32,243,34,229.18,34.1,220.27Z"/><path class="cls-3" d="M66,217.18c.2-12.83,2.34-25.64,11.1-39.31,12.63-19.7,23.3-31,46.25-48.88,30-23.43,38.76-22.13,65.87-40.77,24.34-16.74,41.53-24.84,58.36-24,15.13.72,26.14,11.42,36,21,5.11,5,20.17,20.51,33,55.21,10,27.09,19.68,53.21,13.81,87-1.82,10.46-7.28,39.57-31.21,64.22-29.75,30.63-66.28,38.95-89.87,41-24.1,2.08-70.68.95-104-27.8-21-18.11-29.83-41.05-33.65-52.55C66.2,235.66,65.91,224.42,66,217.18Z"/><path class="cls-4" d="M97.45,213.78c.15-10.08,1.83-20.13,8.72-30.87,9.91-15.48,18.29-24.34,36.32-38.39,23.6-18.4,30.44-17.38,51.73-32C213.34,99.35,226.84,93,240.06,93.61c11.88.56,20.53,9,28.28,16.5,4,3.9,15.85,16.11,25.93,43.36,7.87,21.28,15.46,41.8,10.84,68.35-1.43,8.22-5.72,31.08-24.51,50.44-23.37,24.06-52.06,30.6-70.59,32.2-18.93,1.64-55.51.75-81.66-21.83-16.47-14.22-23.43-32.24-26.43-41.27C97.58,228.3,97.36,219.47,97.45,213.78Z"/><path class="cls-5" d="M132.39,208.54c.11-7,1.29-14,6.09-21.55,6.92-10.8,12.77-17,25.36-26.8,16.48-12.85,21.25-12.13,36.12-22.36,13.34-9.18,22.77-13.62,32-13.18,8.29.39,14.33,6.26,19.74,11.52,2.81,2.72,11.07,11.24,18.1,30.27,5.5,14.86,10.79,29.18,7.57,47.72-1,5.73-4,21.7-17.11,35.21C244,266.17,223.92,270.73,211,271.85c-13.21,1.14-38.76.52-57-15.24-11.5-9.93-16.36-22.51-18.45-28.81A54.87,54.87,0,0,1,132.39,208.54Z"/></g></g></svg>