<svg xmlns="http://www.w3.org/2000/svg" viewBox="0 0 201.65 210.51"><defs><style>.cls-1{fill:#3560ab;}.cls-2{fill:#6190cc;}.cls-3{fill:#a5c6ea;}.cls-4{fill:#dff0fc;}.cls-5{fill:#fff;}</style></defs><g id="Слой_2" data-name="Слой 2"><g id="Слой_1-2" data-name="Слой 1"><path class="cls-1" d="M196.7,72.6c10.17,36.22,2.41,60.68-3.22,77.45-19.36,57.64-65.68,60.29-76.14,60.44-13.23.2-28.63-.92-61.45-16.09-37-17.09-49.35-30.13-52.12-36.66-7.31-17.21-2.32-32.83,1.06-38.65C15.92,100,28.77,102.19,47.54,93.43c25.65-12,40.65-34.34,49.54-47.6C115.34,18.62,116.61-.56,135.42,0c4,.13,18.28.92,34.17,18.79C187.13,38.53,194.77,65.73,196.7,72.6Z"/><path class="cls-2" d="M185.11,86c5.78,26.41-2,44.68-7.64,57.21-19.28,43.08-56.57,46.41-65,46.84-10.61.54-23.14-3-48.18-10-37.39-10.53-40.23-18.71-42-23.45-4.73-12.46,3-26.18,6.05-30.57,10.13-14.42,20.29-13.18,35.89-20.19,21.34-9.6,34.82-26.54,42.81-36.58,16.41-20.61,18.69-34.8,33.72-34.93,3.19,0,14.59.13,26.15,12.84C179.68,61.15,184,81,185.11,86Z"/><path class="cls-3" d="M173.69,94.77c2.57,18.33-4.93,31.57-10.26,40.66-18.34,31.24-47.84,35.32-54.45,36-8.37.87-17.93-1-37-4.84-28.55-5.68-32-10.85-33.06-14.1-2.79-8.57,6.11-19,8.86-22.28,9-10.63,16.9-10.23,29.66-15.9,17.46-7.75,29.3-20.31,36.32-27.75C128.12,71.29,131,61.19,142.76,60.4c2.51-.17,11.44-.59,19.56,7.83C171.28,77.52,173.21,91.29,173.69,94.77Z"/><path class="cls-4" d="M161.9,108.45c.56,12.39-6.29,21.4-11.15,27.59-16.67,21.28-39.88,24.24-45.07,24.75-6.56.65-13.83-.57-28.37-3-21.71-3.65-24-7.12-24.55-9.32-1.49-5.77,6.23-12.93,8.62-15.14,7.83-7.25,13.91-7,24.26-11,14.16-5.37,24.32-14,30.35-19,12.38-10.44,15.38-17.29,24.6-17.91a18.5,18.5,0,0,1,14.56,5.16C161.38,96.8,161.8,106.1,161.9,108.45Z"/><path class="cls-5" d="M150,113c.16,7.59-4.31,13.59-7.47,17.72a49.41,49.41,0,0,1-28.88,18.21c-4.17.83-8.75.56-17.91,0-13.67-.82-15.06-2.81-15.39-4.12-.85-3.46,4.14-8.37,5.69-9.89,5.06-5,8.9-5.25,15.51-8.35,9-4.23,15.6-10.18,19.49-13.71,8-7.25,10-11.67,15.83-12.65,1.24-.21,5.64-.88,9.13,2.22C149.85,105.86,150,111.56,150,113Z"/></g></g></svg>