<svg xmlns="http://www.w3.org/2000/svg" viewBox="0 0 238.42 609.03"><defs><style>.cls-1{fill:#3560ab;}.cls-2{fill:#6190cc;}.cls-3{fill:#a5c6ea;}.cls-4{fill:#dff0fc;}.cls-5{fill:#fff;}</style></defs><g id="Слой_2" data-name="Слой 2"><g id="Слой_1-2" data-name="Слой 1"><path class="cls-1" d="M19,181c-1.84-46.26-2.67-76.43,14.21-112.47,10.36-22.1,24.3-51.86,60-63.68C121.93-4.64,156.67.17,180,15.73c30.12,20.08,34.37,53.5,37.88,85.36,13.82,125.34,20.73,188,20.53,199.19-2.52,139.64-4.34,210.26-31.58,249.32-41.16,59-104.89,69-148.92,51.94C18.33,586.19.69,560.82,0,504.88c-1-84,23.66-91.41,25.26-182.92C25.67,300.35,24.13,310.15,19,181Z"/><path class="cls-2" d="M39.62,193.5c-1.46-41.3-2.12-68.23,11.22-100.4C59,73.37,70,46.8,98.25,36.24c22.72-8.5,50.17-4.21,68.61,9.68,23.8,17.93,27.16,47.76,29.94,76.21C207.72,234,213.17,290,213,300c-2,124.66-3.43,187.71-25,222.58-32.53,52.68-82.89,61.61-117.68,46.37-31.28-13.7-45.22-36.36-45.74-86.29-.79-75,18.69-81.61,20-163.31C44.9,300,43.69,308.76,39.62,193.5Z"/><path class="cls-3" d="M62.08,210.53C61,174,60.51,150.19,70.42,121.74,76.51,104.3,84.7,80.8,105.66,71.47c16.89-7.53,37.3-3.73,51,8.55,17.69,15.86,20.19,42.24,22.26,67.39,8.11,99,12.17,148.42,12.05,157.25-1.48,110.24-2.55,166-18.54,196.82-24.18,46.59-61.61,54.48-87.48,41-23.25-12.12-33.63-26.83-34-71C50.35,405.19,64.85,394,65.79,321.77,66,304.72,65.11,312.45,62.08,210.53Z"/><path class="cls-4" d="M83.4,223.14c-.7-32.87-1-54.31,5.39-79.92C92.72,127.52,98,106.37,111.57,98c10.91-6.77,24.1-3.35,33,7.7,11.44,14.27,13.05,38,14.39,60.66,5.24,89.06,7.86,133.59,7.79,141.54-1,99.23-1.65,149.41-12,177.16-15.63,41.94-39.82,49-56.54,36.91-15-10.9-26.47-24.9-26.72-64.65-.38-59.68,13.73-69,14.34-134C85.94,307.92,85.35,314.88,83.4,223.14Z"/><path class="cls-5" d="M103.29,235.3c-.38-27-.55-44.62,2.9-65.66,2.12-12.9,5-30.28,12.26-37.18,5.88-5.56,13-2.76,17.75,6.33,6.16,11.72,7,31.23,7.75,49.84,2.82,73.17,4.23,109.76,4.19,116.29-.51,81.53-.89,122.76-6.45,145.56-8.42,34.46-21,49.11-31.29,42.07-10-6.83-15.13-18.39-15.26-51.05-.21-49,9.11-70.5,9.44-123.92C104.65,305,104.34,310.68,103.29,235.3Z"/></g></g></svg>