<svg xmlns="http://www.w3.org/2000/svg" viewBox="0 0 364.52 253.14"><defs><style>.cls-1{fill:#3560ab;}.cls-2{fill:#6190cc;}.cls-3{fill:#a5c6ea;}.cls-4{fill:#dff0fc;}.cls-5{fill:#fff;}</style></defs><g id="Слой_2" data-name="Слой 2"><g id="Слой_1-2" data-name="Слой 1"><path class="cls-1" d="M.12,140.85c-.4-13.82-1.41-37.72,28.19-65,19.55-18,37.54-27,73.51-35.48,35.07-8.24,66.21-1.75,102.75-11.55C240.45,19.16,247.25,10.19,291,2.3c32.85-5.92,42.87.76,50.59,6.76,17.64,13.73,20.4,39.25,22.13,55.2,3.64,33.65-6,60-10.54,72.09-19.76,52.31-62,75.34-69.56,80.53-31.34,21.47-55.32,28-111.71,33.23C126.83,254.28,97,256.64,63.35,240c-12.67-6.28-36.93-18.74-51.64-47.3C1.22,172.29.47,153.2.12,140.85Z"/><path class="cls-2" d="M21.9,139c-.35-11.37-1.24-31,24.67-53.51,17.12-14.86,32.87-22.24,64.35-29.19,30.7-6.78,58-1.45,89.94-9.5C232.26,38.9,238.22,31.52,276.5,25c28.76-4.87,37.53.62,44.28,5.56C336.22,41.88,338.64,62.88,340.15,76c3.19,27.68-5.21,49.33-9.22,59.3-17.3,43-54.25,62-60.88,66.26-27.44,17.66-48.43,23.05-97.79,27.34-39.45,3.42-65.59,5.37-95-8.34-11.08-5.17-32.32-15.43-45.2-38.92C22.86,164.87,22.2,149.17,21.9,139Z"/><path class="cls-3" d="M45.36,137.9c-.3-9.07-1-24.77,21-42.72,14.56-11.85,28-17.75,54.73-23.29,26.11-5.41,49.29-1.16,76.5-7.59,26.71-6.31,31.77-12.2,64.34-17.38,24.45-3.89,31.91.5,37.66,4.44,13.13,9,15.19,25.77,16.47,36.24,2.72,22.1-4.43,39.38-7.84,47.34-14.71,34.36-46.14,49.48-51.79,52.88-23.33,14.1-41.19,18.4-83.16,21.82-33.56,2.74-55.8,4.29-80.82-6.65C83,198.86,64.94,190.68,54,171.92,46.18,158.54,45.62,146,45.36,137.9Z"/><path class="cls-4" d="M75.68,138.44c-.23-6.81-.82-18.59,16.61-32.06,11.51-8.9,22.11-13.33,43.28-17.49,20.66-4.06,39-.87,60.51-5.69,21.13-4.74,25.14-9.17,50.89-13,19.35-2.92,25.25.37,29.79,3.33,10.39,6.76,12,19.35,13,27.21,2.14,16.58-3.51,29.55-6.21,35.53-11.63,25.79-36.49,37.14-41,39.7-18.46,10.58-32.58,13.81-65.78,16.38-26.54,2-44.14,3.22-63.93-5-7.46-3.09-21.75-9.24-30.41-23.32C76.33,153.94,75.89,144.53,75.68,138.44Z"/><path class="cls-5" d="M103.38,137.92c-.18-5-.63-13.53,12.61-23.34,8.74-6.48,16.79-9.7,32.88-12.73,15.68-3,29.61-.63,46-4.14,16-3.45,19.09-6.67,38.65-9.5,14.69-2.13,19.17.27,22.63,2.42,7.89,4.93,9.12,14.09,9.89,19.81,1.63,12.07-2.66,21.51-4.71,25.87-8.84,18.77-27.72,27-31.11,28.89-14,7.7-24.75,10.05-50,11.93-20.16,1.49-33.52,2.34-48.55-3.64-5.66-2.25-16.52-6.73-23.1-17C103.87,149.2,103.54,142.35,103.38,137.92Z"/></g></g></svg>