<svg xmlns="http://www.w3.org/2000/svg" viewBox="0 0 395.38 345.24"><defs><style>.cls-1{fill:#3560ab;}.cls-2{fill:#6190cc;}.cls-3{fill:#a5c6ea;}.cls-4{fill:#dff0fc;}.cls-5{fill:#fff;}</style></defs><g id="Слой_2" data-name="Слой 2"><g id="Слой_1-2" data-name="Слой 1"><path class="cls-1" d="M13.27,258.45c-3.45-8.64-23.94-60.1-6-106C20.88,117.57,50,102.83,81.88,87.37c79.32-38.53,106.59-3.46,173.35-41.18,42.69-24.11,53.74-51,80-45.46C371.64,8.41,387.67,68,389.66,75.42c23.13,86-31.15,169.81-35.39,176.16-57,85.48-148.29,90.83-182.71,92.84-28.23,1.65-86.19,5.05-128.39-38.82C26,287.7,17,267.78,13.27,258.45Z"/><path class="cls-2" d="M45.15,246c-2.91-6.64-20.24-46.11-5.71-81.08,11-26.55,35.08-37.61,61.33-49.21,65.41-28.88,87.68-4.77,142.69-33.13,35.18-18.13,58.43-46.7,80.2-42.29,30.21,6.13,44.74,52.93,45.7,67.67,4.48,68.63-38.43,130.35-41.89,135.17C280.85,308,205.31,311.46,176.83,312.76c-23.37,1.07-71.33,3.25-106.58-30.57A114.87,114.87,0,0,1,45.15,246Z"/><path class="cls-3" d="M84.63,233.83c-2.3-4.92-15.95-34.21-4.79-60,8.48-19.61,27.15-27.7,47.54-36.17,50.8-21.11,68-3.15,110.75-23.92,27.31-13.28,55.75-39.65,72.72-36.29,23.54,4.66,31.28,45.47,31.58,52.82,2.09,51.25-35.35,99.11-38,102.67-36,47.87-94.81,50.11-117,51-18.19.69-55.52,2.11-83.1-23.08A86.18,86.18,0,0,1,84.63,233.83Z"/><path class="cls-4" d="M120.46,224.55c-1.63-3.2-11.33-22.25-3.68-38.91,5.82-12.65,18.82-17.79,33-23.16,35.37-13.39,49.83-8.76,79.56-22,19-8.44,57.34-27.56,69.22-25.29,16.47,3.15,14,40.67,13.36,46.45-3.6,32.42-36.07,61.22-37.92,63.51-24.9,30.8-66,31.92-81.45,32.34-12.71.34-38.78,1.05-58.2-15.41A57.62,57.62,0,0,1,120.46,224.55Z"/><path class="cls-5" d="M151.5,216.25c-1.08-1.93-7.52-13.4-2.62-23.34,3.71-7.55,12.15-10.55,21.37-13.69,23-7.82,31.24-2.5,50.53-10.25,12.34-4.95,49.58-27.4,57.34-26,10.75,2,6.38,27.65,4.61,35-4.91,20.33-21,36.23-30.61,42.7-20.24,13.54-43.36,15.59-53.45,15.75-8.28.13-25.26.41-38-9.57A36,36,0,0,1,151.5,216.25Z"/></g></g></svg>